# xmcd CD database file
#
# Track frame offsets:
#	150
#	14106
#	28805
#	49723
#	62690
#	86447
#	109815
#	131292
#	157159
#
# Disc length: 2308 seconds
#
# Revision: 0
# Processed by: cddbd v1.5.1PL2 Copyright (c) Steve Scherf et al.
# Submitted via: CDex 1.51
#
DISCID=75090209
DTITLE=Charlie Daniels Band - Nightrider
DYEAR=1975
DGENRE=Country
TTITLE0=Texas
TTITLE1=Willie Jones
TTITLE2=Damn Good Cowboy
TTITLE3=Evil
TTITLE4=Everything Is Kinda' All Right
TTITLE5=Funky Junky
TTITLE6=Birmingham Blues
TTITLE7=Franklin Limestone
TTITLE8=Tomorrow's Gonna Be Another Day
EXTD=YEAR: 1975
EXTT0=
EXTT1=
EXTT2=
EXTT3=
EXTT4=
EXTT5=
EXTT6=
EXTT7=
EXTT8=
PLAYORDER=
